<?xml version="1.0" encoding="UTF-8"?>
<svg width="33px" height="40px" viewBox="0 0 33 40" version="1.1" xmlns="http://www.w3.org/2000/svg" xmlns:xlink="http://www.w3.org/1999/xlink">
    <!-- Generator: sketchtool 45.1 (43504) - http://www.bohemiancoding.com/sketch -->
    <title>8DDB0E0F-225B-486A-9685-B9142D22481B</title>
    <desc>Created with sketchtool.</desc>
    <defs></defs>
    <g id="mockups" stroke="none" stroke-width="1" fill="none" fill-rule="evenodd">
        <g id="home1" transform="translate(-520.000000, -1581.000000)" stroke="#0F3443" stroke-width="0.3" fill="#0F3443" fill-rule="nonzero">
            <g id="018-security-5" transform="translate(521.000000, 1582.000000)">
                <path d="M30.7031213,0.154731259 C30.5483515,0.0275330622 30.3445495,-0.0250300566 30.1466559,0.0112256011 L28.6778391,0.280336634 C28.3101361,0.34769024 28.0672772,0.696973303 28.1354926,1.06044006 C28.2036312,1.42398267 28.5572153,1.66374028 28.9246881,1.59669006 L29.5927995,1.47427033 L29.5927995,8.0183407 L23.0648441,6.82167645 L23.0648441,2.6701761 L26.503005,2.04032885 C26.8706312,1.97297525 27.1135668,1.62369219 27.0453515,1.26022542 C26.9772129,0.896606966 26.6230916,0.656773515 26.2561559,0.723975424 L22.2642153,1.45530817 C21.9433193,1.51409088 21.7104356,1.79086262 21.7104356,2.11352281 L21.7104356,2.82392132 L19.83225,2.82392132 C19.5405124,1.86329809 18.6380594,1.16116708 17.5724728,1.16116708 C16.271547,1.16116708 15.2131733,2.2073476 15.2131733,3.49328571 C15.2131733,4.546596 15.9234109,5.4385762 16.8953069,5.72702864 L16.8953069,6.43856489 L11.2431015,6.43856489 C11.1716634,6.43856489 11.1029876,6.44963879 11.038302,6.46989038 L2.20468317,9.22554791 L1.87166337,8.89636475 L11.4037797,4.16257426 L13.9655,4.16257426 C14.339495,4.16257426 14.6426658,3.86289622 14.6426658,3.49320987 C14.6426658,3.12352351 14.339495,2.82384547 13.9655,2.82384547 L11.243255,2.82384547 C11.1376708,2.82384547 11.0336213,2.84819289 10.9392401,2.89506736 L0.425866337,8.11618547 C0.231579208,8.21266496 0.0959158416,8.39553607 0.0613861386,8.60768476 C0.026779703,8.8199093 0.0972970297,9.03562288 0.251069307,9.18762359 L1.53772277,10.4594539 C1.66663366,10.5868796 1.83974257,10.6555226 2.01661139,10.6555226 C2.08467327,10.6555226 2.15342574,10.6453589 2.22033663,10.6245005 L10.5660891,8.0209954 L10.5660891,9.88125955 L7.78261139,11.0728419 C6.62402475,11.5682095 5.87542079,12.6946379 5.87542079,13.9425758 L5.87542079,17.5670039 C5.87542079,17.9366902 6.17859158,18.2363683 6.55258663,18.2363683 C6.92658168,18.2363683 7.22975248,17.9366902 7.22975248,17.5670039 L7.22975248,13.9425 C7.22975248,13.22884 7.65784406,12.5847332 8.32058416,12.3014385 L11.3837525,10.9900911 L15.3650272,10.9900911 C15.739099,10.9900911 16.0421931,10.690413 16.0421931,10.3207267 C16.0421931,9.95104031 15.739099,9.65136227 15.3650272,9.65136227 L11.9204208,9.65136227 L11.9204208,7.77721782 L16.8954604,7.77721782 L16.8954604,10.3208784 C16.8954604,10.5877139 17.055755,10.8290644 17.3036015,10.9351008 L20.4954505,12.3015143 C21.1580371,12.5850366 21.5861287,13.2292951 21.5861287,13.9425758 L21.5861287,36.6050925 C21.5861287,37.0962125 21.181901,37.4957074 20.6851337,37.4957074 L8.13074752,37.4957074 C7.6339802,37.4957074 7.22975248,37.0961367 7.22975248,36.6050925 L7.22975248,19.9767915 C7.22975248,19.6071052 6.92658168,19.3074272 6.55258663,19.3074272 C6.17859158,19.3074272 5.87542079,19.6071052 5.87542079,19.9767915 L5.87542079,36.6050925 C5.87542079,37.8344475 6.88721782,38.8344362 8.13074752,38.8344362 L20.6849035,38.8344362 C21.9285099,38.8344362 22.9402302,37.8342958 22.9402302,36.6050925 L22.9402302,13.9426517 C22.9402302,12.6951688 22.191703,11.5688163 21.0332698,11.0730695 L18.2496386,9.8813354 L18.2496386,7.10785343 L18.2496386,6.66785537 L21.7104356,6.66785537 L21.7104356,7.37825389 C21.7104356,7.70091407 21.9432426,7.97753412 22.2642153,8.03639268 L30.1465792,9.48138543 C30.1875545,9.48889445 30.2289134,9.49261103 30.2700421,9.49261103 C30.4268837,9.49261103 30.5804257,9.43868264 30.7030446,9.33795562 C30.8577376,9.21075743 30.9472079,9.02219767 30.9472079,8.82324664 L30.9472079,0.669364392 C30.9472079,0.470489215 30.8577376,0.281929455 30.7031213,0.154731259 Z M17.5725495,4.48659972 C17.0184629,4.48659972 16.5675817,4.04098886 16.5675817,3.49328571 C16.5675817,2.94558257 17.0183861,2.49989586 17.5725495,2.49989586 C18.1266361,2.49989586 18.5774406,2.94550672 18.5774406,3.49328571 C18.5774406,4.04091301 18.1266361,4.48659972 17.5725495,4.48659972 Z M21.7105124,5.32912659 L19.0247921,5.32912659 C19.4040817,5.0352889 19.690448,4.62972613 19.83225,4.16265011 L21.7104356,4.16265011 L21.7104356,5.32912659 L21.7105124,5.32912659 Z" id="Shape"></path>
            </g>
        </g>
    </g>
</svg>